<svg id="Capa_1" data-name="Capa 1" xmlns="http://www.w3.org/2000/svg" viewBox="0 0 960 560"><path d="M497.57,532h-29c1-10.71,1.34-21.34,3-31.75,10.27-64.28,43.34-115,93.28-155.54,23.2-18.82,48.61-34.08,75.48-47a7.24,7.24,0,0,0,3.45-2.94H228.68V265.7h415l.13-.94c-11.68-6.23-23.61-12-35-18.75C564,219.61,525.65,186.28,499.62,140.4c-18.75-33.05-29.47-68.48-30.53-106.64,0-1.59,0-3.19,0-5.24h28.13c1.09,9.72,1.87,19.6,3.36,29.36,5.61,37,21.39,69.44,45,98.24,24.63,30,55.1,52.86,89,71.27,29.19,15.84,59.95,27.91,91.81,37.16,3.82,1.11,5.52,2.65,5.23,6.89a159.27,159.27,0,0,0,0,18.15c.15,3.45-1,4.79-4.41,5.8-31.59,9.46-62.19,21.44-91.31,37-37.63,20.14-70.8,45.64-96.63,80-25.64,34.17-39.55,72.48-41.31,115.18C497.88,529,497.71,530.39,497.57,532Z"/></svg>